# AST/ASF file generated using VICON BodyLanguage
# -----------------------------------------------
:version 1.10
:name VICON
:units
  mass 1.0
  length 0.45
  angle deg
:documentation
   .ast/.asf automatically generated from VICON data using
   VICON BodyBuilder and BodyLanguage model FoxedUp or BRILLIANT.MOD
:root
   order TX TY TZ RX RY RZ
   axis XYZ
   position 0 0 0  
   orientation 0 0 0 
:bonedata
  begin
     id 1 
     name lhipjoint
     direction 0.78388 -0.462562 0.414208 
     length 3.01181 
     axis 0 0 0  XYZ
  end
  begin
     id 2 
     name lfemur
     direction 0.34202 -0.939693 0  
     length 6.04673  
     axis 0 0 20  XYZ
    dof rx ry rz
    limits (-160.0 20.0)
           (-70.0 70.0)
           (-60.0 70.0)
  end
  begin
     id 3 
     name ltibia
     direction 0.34202 -0.939693 0   
     length 7.211   
     axis 0 0 20   XYZ
    dof rx
    limits (-10.0 170.0)
  end
  begin
     id 4 
     name lfoot
     direction 0.121887 -0.334882 0.934344   
     length 2.13567   
     axis -90 7.62852e-016 20   XYZ
    dof rx rz
    limits (-45.0 90.0)
           (-70.0 20.0)
  end
  begin
     id 5 
     name ltoes
     direction 1.53555e-011 -4.2179e-011 1   
     length 1.05957   
     axis -90 7.62852e-016 20   XYZ
    dof rx
    limits (-90.0 20.0)
  end
  begin
     id 6 
     name rhipjoint
     direction -0.769387 -0.475875 0.426129   
     length 2.92756  
     axis 0 0 0  XYZ 
  end
  begin
     id 7 
     name rfemur
     direction -0.34202 -0.939693 0   
     length 6.35468   
     axis 0 0 -20   XYZ
    dof rx ry rz
    limits (-160.0 20.0)
           (-70.0 70.0)
           (-70.0 60.0)
  end
  begin
     id 8 
     name rtibia
     direction -0.34202 -0.939693 0   
     length 7.37886   
     axis 0 0 -20   XYZ
    dof rx
    limits (-10.0 170.0)
 end
 begin
     id 9 
     name rfoot
     direction -0.101763 -0.279592 0.954711   
     length 2.21478  
     axis -90 -7.62852e-016 -20   XYZ
    dof rx rz
    limits (-45.0 90.0)
           (-20.0 70.0)
  end
  begin
     id 10 
     name rtoes
     direction -1.53494e-011 -4.21851e-011 1   
     length 1.10506   
     axis -90 -7.62852e-016 -20   XYZ
    dof rx
    limits (-90.0 20.0)
  end
  begin
     id 11 
     name lowerback
     direction 0.00747405 0.999267 0.0375481   
     length 2.13259   
     axis 0 0 0   XYZ
    dof rx ry rz
    limits (-20.0 45.0)
           (-30.0 30.0)
           (-30.0 30.0)
  end
  begin
     id 12 
     name upperback
     direction 0.00661626 0.996177 0.0871029   
     length 2.10528   
     axis 0 0 0   XYZ
    dof rx ry rz
    limits (-20.0 45.0)
           (-30.0 30.0)
           (-30.0 30.0)
  end
  begin
     id 13 
     name thorax
     direction 0.00320659 0.997679 0.0680167   
     length 2.11338   
     axis 0 0 0   XYZ
    dof rx ry rz
    limits (-20.0 45.0)
           (-30.0 30.0)
           (-30.0 30.0)
  end
  begin
     id 14 
     name lowerneck
     direction 0.0374841 0.973033 0.227602   
     length 1.42765   
     axis 0 0 0   XYZ
    dof rx ry rz
    limits (-20.0 45.0)
           (-30.0 30.0)
           (-30.0 30.0)
  end
  begin
     id 15 
     name upperneck
     direction 0.00481585 0.989155 -0.146795   
     length 1.47593   
     axis 0 0 0   XYZ
    dof rx ry rz
    limits (-20.0 45.0)
           (-30.0 30.0)
           (-30.0 30.0)
  end
  begin
     id 16
     name head
     direction -0.00292522 0.997206 -0.0746423  
     length 1.48116  
     axis 0 0 0   XYZ
    dof rx ry rz
    limits (-20.0 45.0)
           (-30.0 30.0)
           (-30.0 30.0)
  end
  begin
     id 17 
     name lclavicle
     direction 0.951444 0.305606 0.0368784  
     length 3.01855  
     axis 0 0 0   XYZ
    dof ry rz
    limits (-20.0 10.0)
           (0.0 20.0)
  end
  begin
     id 18 
     name lhumerus
     direction 1 -4.48977e-011 2.61664e-027   
     length 5.52731   
     axis 180 -30 -90   XYZ
    dof rx ry rz
    limits (-60.0 90.0)
           (-90.0 90.0)
           (-90.0 90.0)
  end
  begin
     id 19
     name lradius
     direction 1 -4.48944e-011 8.22157e-027   
     length 3.11059   
     axis 180 -30 -90   XYZ
    dof rx
    limits (-10.0 170.0)
  end
  begin
     id 20
     name lwrist
     direction 1 -4.48976e-011 1.5779e-026   
     length 1.5553   
     axis -1.15221e-014 90 90   XYZ
    dof ry
    limits (-180.0 0.0)
 end
  begin
     id 21 
     name lhand
     direction 1 -4.49025e-011 3.1558e-026   
     length 0.419626   
     axis -2.01367e-014 90 90   XYZ
    dof rx rz
    limits (-90.0 90.0)
           (-45.0 45.0)
  end
  begin
     id 22 
     name lfingers
     direction 1 -4.4904e-011 6.31161e-026   
     length 0.338313   
     axis -4.02734e-014 90 90   XYZ
    dof rx
    limits (0.0 90.0)
  end
  begin
     id 23
     name lthumb
     direction 0.707107 -6.35004e-011 0.707107   
     length 0.485752   
     axis -90 45 2.85299e-015   XYZ
    dof rx rz
    limits (-45.0 45.0)
           (-45.0 45.0)
  end
  begin
     id 24 
     name rclavicle
     direction -0.968876 0.223791 0.105816   
     length 3.04177  
     axis 0 0 0   XYZ 
    dof ry rz
    limits (-10.0 20.0)
           (-20.0 0.0)
  end
  begin
     id 25 
     name rhumerus
     direction -1 -4.48962e-011 -1.01384e-027  
     length 5.25396   
     axis 180 30 90   XYZ
    dof rx ry rz
    limits (-90.0 60.0)
           (-90.0 90.0)
           (-90.0 90.0)
  end
  begin
     id 26 
     name rradius
     direction -1 -4.48955e-011 8.88542e-027   
     length 3.10567   
     axis 180 30 90   XYZ
    dof rx
    limits (-10.0 170.0)
  end
  begin
     id 27 
     name rwrist
     direction -1 -4.48994e-011 1.5779e-026   
     length 1.55283   
     axis -1.15221e-014 -90 -90   XYZ
    dof ry
    limits (-180.0 0.0)
  end
  begin
     id 28
     name rhand
     direction -1 -4.48891e-011 3.1558e-026   
     length 0.498676   
     axis -2.01367e-014 -90 -90   XYZ
    dof rx rz
    limits (-90.0 90.0)
           (-45.0 45.0)
  end
  begin
     id 29
     name rfingers
     direction -1 -4.48972e-011 6.31161e-026   
     length 0.402045   
     axis -4.02734e-014 -90 -90   XYZ
    dof rx
    limits (0.0 90.0)
  end
  begin
     id 30
     name rthumb
     direction -0.707107 -6.34849e-011 0.707107   
     length 0.577259   
     axis -90 -45 -2.85299e-015   XYZ
    dof rx rz
    limits (-45.0 45.0)
           (-45.0 45.0)
  end
:hierarchy
  begin
    root lhipjoint rhipjoint lowerback
    lhipjoint lfemur
    lfemur ltibia
    ltibia lfoot
    lfoot ltoes
    rhipjoint rfemur
    rfemur rtibia
    rtibia rfoot
    rfoot rtoes
    lowerback upperback
    upperback thorax
    thorax lowerneck lclavicle rclavicle
    lowerneck upperneck
    upperneck head
    lclavicle lhumerus
    lhumerus lradius
    lradius lwrist
    lwrist lhand lthumb
    lhand lfingers
    rclavicle rhumerus
    rhumerus rradius
    rradius rwrist
    rwrist rhand rthumb
    rhand rfingers
  end

#!OML:ASF H:\Pregnant\Project 1\Capture day 1\Session 1\femalepreg.ASF
:FULLY-SPECIFIED
:DEGREES
203
root 4.51455 9.52067 21.4954 84.0157 -74.183 -39.4482
lowerback 29.6558 2.79946 -4.19806
upperback 9.3551 1.3062 -2.85218
thorax -5.79709 0.329035 -1.15957
lowerneck -29.6771 10.6494 21.7687
upperneck -8.13553 5.61054 -3.16763
head 2.21395 1.5242 -3.74705
rclavicle -4.45278e-014 1.43125e-014
rhumerus 37.971 16.3979 -96.3802
rradius 27.2078
rwrist 16.0841
rhand -52.7367 -22.877
rfingers 7.12502
rthumb -25.2135 -51.2313
lclavicle -4.45278e-014 1.43125e-014
lhumerus 27.7997 7.45216 45.3403
lradius 20.3652
lwrist 43.8592
lhand -41.1564 3.28534
lfingers 7.12502
lthumb -14.0823 32.7882
rfemur -115.496 -8.16102 46.5658
rtibia 122.351
rfoot -33.6102 11.5329
rtoes 6.22163
lfemur -128.529 25.1165 -30.221
ltibia 128.497
lfoot -32.379 -17.9339
ltoes -16.3165
204
root 4.48248 9.49022 21.5107 84.5199 -74.1265 -40.0602
lowerback 29.605 2.80823 -4.31024
upperback 9.4066 1.2644 -3.05592
thorax -5.71184 0.306761 -1.30567
lowerneck -29.7996 10.7592 21.934
upperneck -8.20166 5.65036 -3.13895
head 2.20812 1.52818 -3.7541
rclavicle 3.18055e-015 4.51241e-014
rhumerus 37.8338 16.5714 -96.6502
rradius 27.2284
rwrist 15.7722
rhand -52.8792 -22.8124
rfingers 7.12502
rthumb -25.35 -51.1475
lclavicle 3.18055e-015 4.51241e-014
lhumerus 27.46 7.54165 44.9463
lradius 20.4953
lwrist 44.4427
lhand -40.2597 4.06045
lfingers 7.12502
lthumb -13.2181 33.6214
rfemur -115.423 -8.11409 46.5142
rtibia 122.721
rfoot -33.5521 11.4995
rtoes 5.41219
lfemur -128.808 25.6647 -30.3823
ltibia 129.037
lfoot -32.3517 -18.3255
ltoes -16.9191
205
root 4.45051 9.46156 21.5261 84.9768 -74.0732 -40.636
lowerback 29.5703 2.82185 -4.43125
upperback 9.46562 1.22425 -3.26217
thorax -5.62581 0.284718 -1.45047
lowerneck -29.9187 10.8745 22.1152
upperneck -8.27562 5.69254 -3.12561
head 2.20021 1.53134 -3.76836
rclavicle 1.27222e-014 4.17448e-014
rhumerus 37.7126 16.8174 -96.7524
rradius 27.313
rwrist 15.3078
rhand -53.0295 -22.7219
rfingers 7.12502
rthumb -25.494 -51.0365
lclavicle 1.27222e-014 4.17448e-014
lhumerus 27.1615 7.53004 44.5059
lradius 20.6511
lwrist 45.02
lhand -39.3246 4.80001
lfingers 7.12502
lthumb -12.3167 34.4172
rfemur -115.327 -8.09437 46.452
rtibia 123.077
rfoot -33.497 11.5099
rtoes 4.69376
lfemur -129.038 26.19 -30.5199
ltibia 129.554
lfoot -32.3288 -18.6927
ltoes -17.6091
206
root 4.41879 9.43408 21.5418 85.3886 -74.018 -41.17
lowerback 29.5479 2.83378 -4.55296
upperback 9.52649 1.18068 -3.46939
thorax -5.54351 0.260894 -1.59523
lowerneck -30.0414 10.9948 22.3149
upperneck -8.34478 5.73369 -3.12834
head 2.19484 1.53286 -3.79042
rclavicle 6.83819e-014 3.53837e-014
rhumerus 37.5901 17.1092 -96.7415
rradius 27.4534
rwrist 14.7503
rhand -53.1842 -22.6297
rfingers 7.12502
rthumb -25.6422 -50.923
lclavicle 6.83819e-014 3.53837e-014
lhumerus 26.9132 7.47255 44.0708
lradius 20.8167
lwrist 45.5277
lhand -38.388 5.5156
lfingers 7.12502
lthumb -11.4135 35.185
rfemur -115.222 -8.09913 46.3844
rtibia 123.422
rfoot -33.4425 11.5696
rtoes 4.09512
lfemur -129.24 26.6918 -30.6438
ltibia 130.051
lfoot -32.307 -19.0369
ltoes -18.2809
207
root 4.38796 9.40779 21.5589 85.5953 -73.9531 -41.5095
lowerback 29.5729 2.81551 -4.63658
upperback 9.59039 1.10636 -3.67688
thorax -5.47939 0.222848 -1.7533
lowerneck -30.1778 11.1184 22.5079
upperneck -8.40259 5.77627 -3.1283
head 2.19451 1.536 -3.80987
rclavicle -3.18055e-014 7.95139e-015
rhumerus 37.4615 17.4332 -96.6666
rradius 27.643
rwrist 14.1514
rhand -53.3334 -22.5728
rfingers 7.12502
rthumb -25.7851 -50.8454
lclavicle -3.18055e-014 7.95139e-015
lhumerus 26.7118 7.40064 43.6576
lradius 20.9924
lwrist 45.9464
lhand -37.4514 6.17295
lfingers 7.12502
lthumb -10.5101 35.8902
rfemur -115.115 -8.19821 46.3275
rtibia 123.757
rfoot -33.4075 11.6549
rtoes 3.48537
lfemur -129.369 27.0732 -30.7154
ltibia 130.519
lfoot -32.2749 -19.2912
ltoes -18.9048
208
root 4.35726 9.38234 21.5762 85.8154 -73.8823 -41.8661
lowerback 29.6126 2.79616 -4.7196
upperback 9.65029 1.02965 -3.88191
thorax -5.42698 0.183739 -1.90889
lowerneck -30.3232 11.2386 22.6811
upperneck -8.44869 5.81747 -3.11369
head 2.19795 1.54062 -3.82133
rclavicle -5.24792e-014 -2.24627e-014
rhumerus 37.314 17.7839 -96.5452
rradius 27.8864
rwrist 13.5206
rhand -53.4692 -22.5402
rfingers 7.12502
rthumb -25.9152 -50.7939
lclavicle -5.24792e-014 -2.24627e-014
lhumerus 26.5618 7.37141 43.3055
lradius 21.1676
lwrist 46.2646
lhand -36.5336 6.75762
lfingers 7.12502
lthumb -9.62464 36.5178
rfemur -114.99 -8.29557 46.272
rtibia 124.079
rfoot -33.3721 11.7595
rtoes 2.96966
lfemur -129.493 27.4677 -30.7972
ltibia 130.98
lfoot -32.2543 -19.5356
ltoes -19.3232
209
root 4.32686 9.3572 21.5938 86.0726 -73.8029 -42.2579
lowerback 29.6582 2.77349 -4.79859
upperback 9.70456 0.949529 -4.08476
thorax -5.38397 0.143211 -2.06369
lowerneck -30.4852 11.3531 22.8205
upperneck -8.47243 5.85644 -3.06718
head 2.20851 1.54841 -3.81673
rclavicle -5.40694e-014 -7.7526e-015
rhumerus 37.1353 18.0891 -96.5428
rradius 28.1286
rwrist 13.024
rhand -53.5922 -22.5219
rfingers 7.12502
rthumb -26.0329 -50.7583
lclavicle -5.40694e-014 -7.7526e-015
lhumerus 26.4657 7.40604 43.0281
lradius 21.3392
lwrist 46.4874
lhand -35.7696 7.24107
lfingers 7.12502
lthumb -8.88749 37.0339
rfemur -114.853 -8.37732 46.2188
rtibia 124.387
rfoot -33.3427 11.8551
rtoes 2.47249
lfemur -129.631 27.8833 -30.8977
ltibia 131.441
lfoot -32.2478 -19.7717
ltoes -19.7753
210
root 4.29668 9.33198 21.6115 86.4368 -73.7142 -42.7472
lowerback 29.693 2.75504 -4.88229
upperback 9.74902 0.874583 -4.28428
thorax -5.34736 0.105363 -2.2139
lowerneck -30.6518 11.4592 22.9211
upperneck -8.47991 5.89533 -2.98589
head 2.223 1.56066 -3.79448
rclavicle 6.36111e-015 -5.64548e-014
rhumerus 36.9372 18.3674 -96.6346
rradius 28.3603
rwrist 12.6261
rhand -53.7018 -22.5224
rfingers 7.12502
rthumb -26.1378 -50.7433
lclavicle 6.36111e-015 -5.64548e-014
lhumerus 26.3999 7.42897 42.7718
lradius 21.5475
lwrist 46.7748
lhand -35.11 7.58319
lfingers 7.12502
lthumb -8.25093 37.4021
rfemur -114.709 -8.4073 46.1709
rtibia 124.681
rfoot -33.3166 11.9044
rtoes 1.93807
lfemur -129.819 28.3572 -31.0404
ltibia 131.912
lfoot -32.2579 -20.0213
ltoes -20.2325
211
root 4.26676 9.30665 21.6293 86.9007 -73.6132 -43.3255
lowerback 29.7062 2.74579 -4.97439
upperback 9.78578 0.811837 -4.47304
thorax -5.30992 0.0733351 -2.35104
lowerneck -30.8056 11.5517 22.9817
upperneck -8.48179 5.93431 -2.878
head 2.23654 1.57678 -3.7578
rclavicle -3.18055e-015 3.69739e-014
rhumerus 36.7254 18.6459 -96.7461
rradius 28.6027
rwrist 12.2545
rhand -53.7968 -22.5327
rfingers 7.12502
rthumb -26.2288 -50.7401
lclavicle -3.18055e-015 3.69739e-014
lhumerus 26.3549 7.37702 42.5137
lradius 21.8246
lwrist 47.2512
lhand -34.8209 7.81706
lfingers 7.12502
lthumb -7.97191 37.6467
rfemur -114.562 -8.39056 46.1295
rtibia 124.963
rfoot -33.2869 11.935
rtoes 1.44098
lfemur -130.066 28.8936 -31.2312
ltibia 132.393
lfoot -32.2786 -20.2996
ltoes -20.7046
